<?xml version="1.0" encoding="UTF-8"?>
<svg width="240px" height="211px" viewBox="0 0 240 211" version="1.1" xmlns="http://www.w3.org/2000/svg" xmlns:xlink="http://www.w3.org/1999/xlink">
    <!-- Generator: Sketch 50.2 (55047) - http://www.bohemiancoding.com/sketch -->
    <title>ilus1</title>
    <desc>Created with Sketch.</desc>
    <defs></defs>
    <g id="Page-1" stroke="none" stroke-width="1" fill="none" fill-rule="evenodd">
        <g id="REGISTER" transform="translate(-681.000000, -263.000000)">
            <g id="ilus1" transform="translate(681.000000, 263.000000)">
                <circle id="Oval" fill="#64C3D9" opacity="0.349999994" transform="translate(70.000000, 24.000000) rotate(-90.000000) translate(-70.000000, -24.000000) " cx="70" cy="24" r="3"></circle>
                <circle id="Oval-Copy" fill="#64C3D9" opacity="0.349999994" transform="translate(52.000000, 24.000000) rotate(-90.000000) translate(-52.000000, -24.000000) " cx="52" cy="24" r="3"></circle>
                <circle id="Oval-Copy-4" fill="#64C3D9" opacity="0.349999994" transform="translate(156.000000, 13.000000) rotate(-90.000000) translate(-156.000000, -13.000000) " cx="156" cy="13" r="3"></circle>
                <circle id="Oval-Copy-9" fill="#64C3D9" opacity="0.349999994" transform="translate(156.000000, 3.000000) rotate(-90.000000) translate(-156.000000, -3.000000) " cx="156" cy="3" r="3"></circle>
                <circle id="Oval-Copy-10" fill="#64C3D9" opacity="0.349999994" transform="translate(147.000000, 3.000000) rotate(-90.000000) translate(-147.000000, -3.000000) " cx="147" cy="3" r="3"></circle>
                <circle id="Oval-Copy-12" fill="#64C3D9" opacity="0.349999994" transform="translate(228.000000, 102.000000) rotate(-90.000000) translate(-228.000000, -102.000000) " cx="228" cy="102" r="3"></circle>
                <circle id="Oval-Copy-13" fill="#64C3D9" opacity="0.349999994" transform="translate(228.000000, 93.000000) rotate(-90.000000) translate(-228.000000, -93.000000) " cx="228" cy="93" r="3"></circle>
                <circle id="Oval-Copy-14" fill="#64C3D9" opacity="0.349999994" transform="translate(237.000000, 93.000000) rotate(-90.000000) translate(-237.000000, -93.000000) " cx="237" cy="93" r="3"></circle>
                <circle id="Oval-Copy-15" fill="#64C3D9" opacity="0.349999994" transform="translate(219.000000, 102.000000) rotate(-90.000000) translate(-219.000000, -102.000000) " cx="219" cy="102" r="3"></circle>
                <circle id="Oval-Copy-2" fill="#64C3D9" opacity="0.349999994" transform="translate(213.000000, 37.000000) rotate(-90.000000) translate(-213.000000, -37.000000) " cx="213" cy="37" r="3"></circle>
                <circle id="Oval-Copy-11" fill="#64C3D9" opacity="0.349999994" transform="translate(213.000000, 27.000000) rotate(-90.000000) translate(-213.000000, -27.000000) " cx="213" cy="27" r="3"></circle>
                <circle id="Oval-Copy-16" fill="#64C3D9" opacity="0.349999994" transform="translate(13.000000, 117.000000) rotate(-90.000000) translate(-13.000000, -117.000000) " cx="13" cy="117" r="3"></circle>
                <circle id="Oval-Copy-17" fill="#64C3D9" opacity="0.349999994" transform="translate(13.000000, 107.000000) rotate(-90.000000) translate(-13.000000, -107.000000) " cx="13" cy="107" r="3"></circle>
                <circle id="Oval-Copy-18" fill="#64C3D9" opacity="0.349999994" transform="translate(3.000000, 107.000000) rotate(-90.000000) translate(-3.000000, -107.000000) " cx="3" cy="107" r="3"></circle>
                <circle id="Oval-Copy-19" fill="#64C3D9" opacity="0.349999994" transform="translate(13.000000, 87.000000) rotate(-90.000000) translate(-13.000000, -87.000000) " cx="13" cy="87" r="3"></circle>
                <g id="Group-2" transform="translate(55.000000, 29.000000)" fill="#1F4A5F">
                    <path d="M78.1616372,63.0322919 L53.6480088,63.0322919 C52.4975664,63.0322919 51.5576549,62.0935661 51.5576549,60.9357273 C51.5576549,59.7778886 52.4975664,58.8391628 53.6480088,58.8391628 L78.1616372,58.8391628 C79.3166814,58.8391628 80.2565929,59.7778886 80.2565929,60.9357273 C80.2565929,62.0901064 79.3166814,63.0322919 78.1616372,63.0322919 Z M36.4350885,41.6330338 C35.4721681,40.6700902 35.4721681,39.1005499 36.4350885,38.1341467 C37.3991593,37.1688967 38.9649115,37.1688967 39.9335841,38.1422193 L44.3156195,42.4610499 C44.3202212,42.4656628 44.3282743,42.4691225 44.3294248,42.4725822 C45.1427876,43.3005983 46.2633186,43.7745741 47.4229646,43.7745741 C49.8250885,43.7745741 51.7831416,41.827929 51.7854425,39.4292193 C51.7854425,39.4269128 51.7854425,39.4269128 51.7854425,39.4234531 L51.7854425,11.6895257 C51.7854425,10.3264128 52.8956195,9.2170096 54.2554425,9.2170096 C55.6152655,9.2170096 56.7231416,10.3264128 56.7231416,11.6895257 L56.7231416,32.553687 C56.7231416,33.3447999 57.3616372,33.9859935 58.1496903,33.9859935 C58.9377434,33.9859935 59.5785398,33.3447999 59.5785398,32.553687 L59.5785398,29.2762193 C59.5785398,27.8669773 60.7082743,26.6756951 62.0462389,26.6756951 C63.3842035,26.6756951 64.5139381,27.8669773 64.5139381,29.2762193 L64.5139381,33.7022999 C64.5139381,34.4934128 65.155885,35.1346064 65.9427876,35.1346064 C66.7331416,35.1346064 67.3727876,34.4934128 67.3727876,33.7022999 L67.3727876,30.9322515 C67.3727876,29.565679 68.4795133,28.457429 69.8416372,28.457429 C71.2026106,28.457429 72.3081858,29.565679 72.3081858,30.9322515 L72.3081858,32.4533564 C72.3081858,32.4533564 72.3081858,32.4568161 72.3081858,32.4602757 C72.3081858,32.4602757 72.3081858,32.4602757 72.3081858,32.4625822 L72.3081858,35.3594854 C72.3081858,36.1494451 72.9489823,36.7906386 73.7370354,36.7906386 C74.5262389,36.7906386 75.1670354,36.1494451 75.1670354,35.3594854 L75.1670354,32.4533564 C75.1704867,31.0925499 76.2760619,29.9842999 77.6370354,29.9842999 C78.9968584,29.9842999 80.1024336,31.0960096 80.1024336,32.4602757 L80.1024336,52.3418886 C80.1024336,54.3438886 78.4780088,55.9733967 76.4785398,55.9733967 C76.4785398,55.9733967 76.4762389,55.9733967 76.4716372,55.9733967 L53.6480088,55.9733967 C52.8093363,55.9733967 52.0178319,56.1867435 51.324115,56.5592354 L36.4350885,41.6330338 Z M81.0676549,56.924808 C82.2365044,55.7496709 82.9601327,54.1282354 82.9601327,52.3418886 L82.9601327,32.3299612 C82.9601327,32.2872919 82.9520796,32.2446225 82.9474779,32.2019531 C82.8140265,29.3800096 80.485531,27.119687 77.6370354,27.119687 C76.4267699,27.119687 75.3119912,27.5325419 74.4169469,28.2140983 C73.4885398,26.6468644 71.7881858,25.5916628 69.8416372,25.5916628 C68.6578319,25.5916628 67.5706637,25.9849128 66.6859735,26.6399451 C65.7633186,24.9677677 64.0100442,23.809929 62.0462389,23.809929 C61.1626991,23.809929 60.3240265,24.0474935 59.5785398,24.4580419 L59.5785398,11.6895257 C59.5785398,8.7476467 57.1902212,6.3523967 54.2554425,6.3523967 C51.3172124,6.3523967 48.9277434,8.7476467 48.9277434,11.6895257 L48.9277434,39.4234531 C48.9277434,40.2433967 48.2535841,40.9111144 47.4229646,40.9111144 C47.0134071,40.9111144 46.6326106,40.7473564 46.3519027,40.4521306 C46.3461504,40.4463644 46.3415487,40.4429048 46.3369469,40.4371386 C46.3300442,40.4325257 46.3231416,40.4244531 46.3196903,40.4175338 L41.9445575,36.1090822 C39.8726106,34.0298161 36.4926106,34.0275096 34.4160619,36.1090822 C32.3372124,38.191808 32.3372124,41.5788322 34.4160619,43.6580983 L49.2970354,58.5773806 C48.9162389,59.2796951 48.6976549,60.0823402 48.6976549,60.9357273 C48.6976549,63.6723322 50.9180088,65.898058 53.6480088,65.898058 L78.1616372,65.898058 C80.8904867,65.898058 83.1131416,63.6723322 83.1131416,60.9357273 C83.1131416,59.2854612 82.3043805,57.8277838 81.0676549,56.924808 Z" id="Fill-35"></path>
                    <path d="M80.1024336,32.4602757 L80.1024336,52.3418886 C80.1024336,54.3438886 78.4780088,55.9733967 76.4785398,55.9733967 C76.4785398,55.9733967 76.4762389,55.9733967 76.4716372,55.9733967 L53.6480088,55.9733967 C52.8093363,55.9733967 52.0178319,56.1867435 51.324115,56.5592354 L36.4350885,41.6330338 C35.4721681,40.6700902 35.4721681,39.1005499 36.4350885,38.1341467 C37.3991593,37.1688967 38.9649115,37.1688967 39.9335841,38.1422193 L44.3156195,42.4610499 C44.3202212,42.4656628 44.3282743,42.4691225 44.3294248,42.4725822 C45.1427876,43.3005983 46.2633186,43.7745741 47.4229646,43.7745741 C49.8250885,43.7745741 51.7831416,41.827929 51.7854425,39.4292193 C51.7854425,39.4269128 51.7854425,39.4269128 51.7854425,39.4234531 L51.7854425,11.6895257 C51.7854425,10.3264128 52.8956195,9.2170096 54.2554425,9.2170096 C55.6152655,9.2170096 56.7231416,10.3264128 56.7231416,11.6895257 L56.7231416,32.553687 C56.7231416,33.3447999 57.3616372,33.9859935 58.1496903,33.9859935 C58.9377434,33.9859935 59.5785398,33.3447999 59.5785398,32.553687 L59.5785398,29.2762193 C59.5785398,27.8669773 60.7082743,26.6756951 62.0462389,26.6756951 C63.3842035,26.6756951 64.5139381,27.8669773 64.5139381,29.2762193 L64.5139381,33.7022999 C64.5139381,34.4934128 65.155885,35.1346064 65.9427876,35.1346064 C66.7331416,35.1346064 67.3727876,34.4934128 67.3727876,33.7022999 L67.3727876,30.9322515 C67.3727876,29.565679 68.4795133,28.457429 69.8416372,28.457429 C71.2026106,28.457429 72.3081858,29.565679 72.3081858,30.9322515 L72.3081858,32.4533564 C72.3081858,32.4533564 72.3081858,32.4568161 72.3081858,32.4602757 C72.3081858,32.4602757 72.3081858,32.4602757 72.3081858,32.4625822 L72.3081858,35.3594854 C72.3081858,36.1494451 72.9489823,36.7906386 73.7370354,36.7906386 C74.5262389,36.7906386 75.1670354,36.1494451 75.1670354,35.3594854 L75.1670354,32.4533564 C75.1704867,31.0925499 76.2760619,29.9842999 77.6370354,29.9842999 C78.9968584,29.9842999 80.1024336,31.0960096 80.1024336,32.4602757" id="Fill-36" opacity="0.403306159"></path>
                    <path d="M50.3094248,4.10706605 C50.5188053,4.68829186 51.0687168,5.05040476 51.6519912,5.05040476 C51.8119027,5.05040476 51.9775664,5.02272734 52.1397788,4.9627596 C52.8818142,4.69290476 53.2637611,3.87180799 52.995708,3.12797734 L52.2019027,0.942614438 C51.9303982,0.199937018 51.1089823,-0.184087175 50.3692478,0.0869208893 C49.6272124,0.356775728 49.2452655,1.17902573 49.514469,1.92285637 L50.3094248,4.10706605" id="Fill-37"></path>
                    <path d="M44.9403097,7.04894508 L46.9489823,8.21254992 C47.1756195,8.34286444 47.4195133,8.40513863 47.6622566,8.40513863 C48.1569469,8.40513863 48.6378319,8.14796928 48.9001327,7.68783218 C49.295885,7.00396928 49.0623451,6.12636444 48.3778319,5.73196121 L46.3703097,4.56835637 C45.684646,4.17279992 44.8114602,4.40690476 44.415708,5.09307412 C44.0222566,5.77809024 44.2569469,6.65338863 44.9403097,7.04894508" id="Fill-38"></path>
                    <path d="M44.4743805,13.9452354 C44.5560619,13.9452354 44.6400442,13.9394693 44.7240265,13.9233241 L47.0088053,13.5196951 C47.7842035,13.3836144 48.305354,12.640937 48.1661504,11.8613564 C48.0303982,11.0817757 47.2883628,10.5593644 46.5129646,10.6989048 L44.2281858,11.1025338 C43.4504867,11.2397677 42.9327876,11.9812919 43.0685398,12.7620257 C43.1904867,13.4562677 43.7933186,13.9452354 44.4743805,13.9452354" id="Fill-39"></path>
                    <path d="M60.3401327,11.8613564 C60.2020796,12.640937 60.7220796,13.3836144 61.4997788,13.5196951 L63.7845575,13.9233241 C63.8685398,13.9394693 63.9502212,13.9452354 64.0330531,13.9452354 C64.714115,13.9452354 65.3157965,13.4562677 65.4377434,12.7620257 C65.574646,11.9812919 65.0557965,11.2397677 64.2792478,11.1025338 L61.994469,10.6989048 C61.2179204,10.5616709 60.4770354,11.0817757 60.3401327,11.8613564" id="Fill-40"></path>
                    <path d="M60.845177,8.40513863 C61.0867699,8.40513863 61.3329646,8.34286444 61.5573009,8.21254992 L63.5659735,7.05009831 C64.2504867,6.65454186 64.4840265,5.77809024 64.0905752,5.09307412 C63.6959735,4.40690476 62.8239381,4.17279992 62.1371239,4.56835637 L60.1296018,5.73080799 C59.4439381,6.12636444 59.2115487,7.00166282 59.605,7.68783218 C59.8719027,8.14681605 60.3504867,8.40513863 60.845177,8.40513863" id="Fill-41"></path>
                    <path d="M56.3676549,4.9627596 C56.5287168,5.02272734 56.6943805,5.05040476 56.8577434,5.05040476 C57.4387168,5.05040476 57.9874779,4.68944508 58.2003097,4.10821928 L58.9929646,1.92285637 C59.2633186,1.17902573 58.8813717,0.357928954 58.1381858,0.0869208893 C57.3961504,-0.184087175 56.5781858,0.199937018 56.3078319,0.942614438 L55.515177,3.12797734 C55.2436726,3.87180799 55.6267699,4.69290476 56.3676549,4.9627596" id="Fill-42"></path>
                    <path d="M53.5306637,66.7698967 C52.7426106,66.7698967 52.1018142,67.4122435 52.1018142,68.2033564 L52.1018142,140.871574 C52.1018142,141.662687 52.7426106,142.303881 53.5306637,142.303881 C54.3210177,142.303881 54.9606637,141.662687 54.9606637,140.871574 L54.9606637,68.2033564 C54.9606637,67.4122435 54.3210177,66.7698967 53.5306637,66.7698967" id="Fill-43"></path>
                    <path d="M78.2812832,66.7698967 C77.4920796,66.7698967 76.8535841,67.4122435 76.8535841,68.2033564 L76.8535841,140.871574 C76.8535841,141.662687 77.4920796,142.303881 78.2812832,142.303881 C79.0716372,142.303881 79.7101327,141.662687 79.7101327,140.871574 L79.7101327,68.2033564 C79.7101327,67.4122435 79.0716372,66.7698967 78.2812832,66.7698967" id="Fill-44"></path>
                    <path d="M41.974469,95.8185015 L19.3234071,95.8185015 C18.314469,95.8185015 17.4976549,94.9962515 17.4976549,93.9860257 C17.4976549,92.9792596 18.314469,92.1558564 19.3234071,92.1558564 L41.974469,92.1558564 C42.9799558,92.1558564 43.8013717,92.9792596 43.8013717,93.9860257 C43.8013717,94.9962515 42.9799558,95.8185015 41.974469,95.8185015 Z M3.48986726,76.0741225 C2.64429204,75.2253483 2.64429204,73.8414773 3.48986726,72.9938564 C4.33544248,72.1462354 5.71597345,72.1462354 6.56960177,73.001929 L10.6203097,76.9920902 C10.6272124,76.9990096 10.634115,77.0036225 10.6398673,77.0105419 C11.4072124,77.7901225 12.4702212,78.2375741 13.5665929,78.2375741 C15.8490708,78.2375741 17.7070354,76.3854935 17.7070354,74.1090257 L17.7070354,48.477429 C17.7070354,47.2757677 18.6826106,46.2989854 19.8802212,46.2989854 C21.0789823,46.2989854 22.0522566,47.2757677 22.0522566,48.477429 L22.0522566,64.7240741 C22.0522566,64.7263806 22.0522566,64.728687 22.0522566,64.728687 C22.0522566,64.7309935 22.0522566,64.7309935 22.0522566,64.7309935 L22.0522566,67.757058 C22.0522566,68.5470177 22.6919027,69.1893644 23.4799558,69.1893644 C24.2703097,69.1893644 24.9111062,68.5470177 24.9111062,67.757058 L24.9111062,64.7240741 C24.9122566,63.4832031 25.9073894,62.4337677 27.0819912,62.4337677 C28.2588938,62.4337677 29.2528761,63.4855096 29.2528761,64.728687 L29.2528761,66.2532515 C29.2528761,66.2544048 29.2528761,66.2590177 29.2528761,66.2590177 C29.2528761,66.2624773 29.2528761,66.2624773 29.2528761,66.2624773 L29.2528761,68.8226386 C29.2528761,69.6125983 29.8959735,70.2549451 30.6817257,70.2549451 C31.4720796,70.2549451 32.1105752,69.6125983 32.1105752,68.8226386 L32.1105752,66.2532515 C32.115177,65.0550499 33.0884513,64.0817273 34.2837611,64.0817273 C35.4802212,64.0817273 36.4557965,65.0585096 36.4557965,66.2590177 L36.4557965,70.3495096 C36.4557965,71.1440822 37.0954425,71.7806628 37.884646,71.7806628 C38.6761504,71.7806628 39.3134956,71.1440822 39.3134956,70.3495096 L39.3134956,67.6544209 C39.325,66.4619854 40.2925221,65.494429 41.4843805,65.494429 C42.6831416,65.494429 43.6610177,66.470058 43.6610177,67.6717193 L43.6610177,86.0437596 C43.6610177,87.8335661 42.2080088,89.2923967 40.4202212,89.2923967 L19.3234071,89.2923967 C18.5537611,89.2923967 17.8335841,89.4815257 17.1939381,89.8113483 L3.48986726,76.0741225 Z M44.8172124,90.2657193 C45.8664159,89.1655419 46.5198673,87.6813402 46.5198673,86.0437596 L46.5198673,67.5540902 C46.5198673,67.5137273 46.5106637,67.4733644 46.5037611,67.4341548 C46.3818142,64.7632838 44.1821681,62.6286628 41.4843805,62.6286628 C40.3880088,62.6286628 39.3721681,62.9873161 38.5461504,63.5881467 C37.6534071,62.1673725 36.0796018,61.2171144 34.2837611,61.2171144 C33.2126991,61.2171144 32.2187168,61.5573161 31.3996018,62.1362354 C30.5137611,60.6151306 28.8950885,59.570308 27.0819912,59.570308 C26.3077434,59.570308 25.5726106,59.7675096 24.9111062,60.1019451 L24.9111062,48.477429 C24.9111062,45.6981548 22.6562389,43.4343725 19.8802212,43.4343725 C17.105354,43.4343725 14.8504867,45.6981548 14.8504867,48.477429 L14.8504867,74.1090257 C14.8504867,74.8044209 14.2729646,75.371808 13.5665929,75.371808 C13.2191593,75.371808 12.8947345,75.2334209 12.654292,74.9820177 C12.6485398,74.9750983 12.6404867,74.9704854 12.6347345,74.9647193 C12.6289823,74.9577999 12.6266814,74.9520338 12.6232301,74.9508806 L8.58172566,70.9687919 C6.62137168,69.0025419 3.43004425,69.0025419 1.46853982,70.9687919 C-0.489513274,72.9361951 -0.489513274,76.132937 1.46853982,78.0980338 L15.1680088,91.8294935 C14.8309292,92.4776064 14.6388053,93.2075983 14.6388053,93.9860257 C14.6388053,96.5761709 16.7395133,98.6831144 19.3234071,98.6831144 L41.974469,98.6831144 C44.5572124,98.6831144 46.6590708,96.5761709 46.6590708,93.9860257 C46.6590708,92.470687 45.9365929,91.1248725 44.8172124,90.2657193 Z" id="Fill-45"></path>
                    <path d="M43.6610177,67.6717193 L43.6610177,86.0437596 C43.6610177,87.8335661 42.2080088,89.2923967 40.4202212,89.2923967 L19.3234071,89.2923967 C18.5537611,89.2923967 17.8335841,89.4815257 17.1939381,89.8113483 L3.48986726,76.0741225 C2.64429204,75.2253483 2.64429204,73.8414773 3.48986726,72.9938564 C4.33544248,72.1462354 5.71597345,72.1462354 6.56960177,73.001929 L10.6203097,76.9920902 C10.6272124,76.9990096 10.634115,77.005929 10.6398673,77.0105419 C11.4072124,77.7901225 12.4702212,78.2375741 13.5665929,78.2375741 C15.8490708,78.2375741 17.7070354,76.3854935 17.7070354,74.1090257 L17.7070354,48.477429 C17.7070354,47.2769209 18.6826106,46.3001386 19.8802212,46.3001386 C21.0789823,46.3001386 22.0522566,47.2769209 22.0522566,48.477429 L22.0522566,64.7240741 C22.0522566,64.7263806 22.0522566,64.728687 22.0522566,64.728687 C22.0522566,64.7321467 22.0522566,64.7321467 22.0522566,64.7321467 L22.0522566,67.757058 C22.0522566,68.5470177 22.6919027,69.1893644 23.4799558,69.1893644 C24.2703097,69.1893644 24.9111062,68.5470177 24.9111062,67.757058 L24.9111062,64.7240741 C24.9122566,63.4832031 25.9073894,62.4337677 27.0819912,62.4337677 C28.2588938,62.4337677 29.2528761,63.4855096 29.2528761,64.728687 L29.2528761,66.2532515 C29.2528761,66.255558 29.2528761,66.2590177 29.2528761,66.2590177 C29.2528761,66.2624773 29.2528761,66.2624773 29.2528761,66.2624773 L29.2528761,68.8226386 C29.2528761,69.6125983 29.8959735,70.2549451 30.6817257,70.2549451 C31.4720796,70.2549451 32.1105752,69.6125983 32.1105752,68.8226386 L32.1105752,66.2532515 C32.115177,65.0550499 33.0884513,64.0828806 34.2837611,64.0828806 C35.4802212,64.0828806 36.4557965,65.0585096 36.4557965,66.2590177 L36.4557965,70.3506628 C36.4557965,71.1440822 37.0954425,71.7818161 37.884646,71.7818161 C38.6761504,71.7818161 39.3134956,71.1440822 39.3134956,70.3506628 L39.3134956,67.6544209 C39.325,66.4619854 40.2925221,65.494429 41.4843805,65.494429 C42.6831416,65.494429 43.6610177,66.470058 43.6610177,67.6717193" id="Fill-46" opacity="0.403306159"></path>
                    <path d="M19.2129646,99.2712596 C18.4226106,99.2712596 17.7829646,99.9124531 17.7829646,100.704719 L17.7829646,140.871574 C17.7829646,141.662687 18.4226106,142.303881 19.2129646,142.303881 C20.0010177,142.303881 20.6418142,141.662687 20.6418142,140.871574 L20.6418142,100.704719 C20.6418142,99.9124531 20.0021681,99.2712596 19.2129646,99.2712596" id="Fill-47"></path>
                    <path d="M42.0837611,99.2712596 C41.2968584,99.2712596 40.6549115,99.9124531 40.6549115,100.704719 L40.6549115,140.871574 C40.6549115,141.662687 41.2968584,142.303881 42.0837611,142.303881 C42.874115,142.303881 43.5126106,141.662687 43.5126106,140.871574 L43.5126106,100.704719 C43.5126106,99.9124531 42.874115,99.2712596 42.0837611,99.2712596" id="Fill-48"></path>
                    <path d="M124.244912,95.8185015 L101.59385,95.8185015 C100.588363,95.8185015 99.7669469,94.9962515 99.7669469,93.9860257 C99.7669469,92.9792596 100.588363,92.1558564 101.59385,92.1558564 L124.247212,92.1558564 C125.25385,92.1558564 126.072965,92.9792596 126.072965,93.9860257 C126.071814,94.9962515 125.25385,95.8185015 124.244912,95.8185015 Z M85.7603097,76.0741225 C84.9147345,75.2253483 84.9147345,73.8414773 85.7603097,72.9938564 C86.1721681,72.583308 86.7186283,72.3549693 87.2996018,72.3549693 C87.8782743,72.3549693 88.4247345,72.583308 88.8400442,73.001929 L92.8907522,76.9920902 C92.8965044,76.9990096 92.9045575,77.0013161 92.9103097,77.0105419 C93.6788053,77.7901225 94.7429646,78.2375741 95.835885,78.2375741 C98.1206637,78.2375741 99.9786283,76.3854935 99.9786283,74.1090257 C99.9786283,74.1055661 99.9786283,74.1055661 99.9786283,74.1055661 L99.9786283,48.477429 C99.9786283,47.2757677 100.953053,46.2989854 102.150664,46.2989854 C103.347124,46.2989854 104.322699,47.2757677 104.322699,48.477429 L104.322699,67.757058 C104.322699,68.5470177 104.963496,69.1893644 105.751549,69.1893644 C106.543053,69.1893644 107.181549,68.5470177 107.181549,67.757058 L107.181549,64.728687 C107.181549,63.4855096 108.175531,62.4337677 109.352434,62.4337677 C110.532788,62.4337677 111.52677,63.4855096 111.52677,64.728687 L111.52677,66.2590177 C111.52677,66.2624773 111.52677,66.2636306 111.52677,66.2636306 L111.52677,68.8226386 C111.52677,69.6125983 112.167566,70.2549451 112.95677,70.2549451 C113.744823,70.2549451 114.384469,69.6125983 114.384469,68.8226386 L114.384469,66.2463322 C114.391372,65.0527435 115.362345,64.0817273 116.557655,64.0817273 C117.755265,64.0817273 118.730841,65.0585096 118.730841,66.2590177 L118.730841,70.3495096 C118.730841,71.1440822 119.370487,71.7806628 120.157389,71.7806628 C120.947743,71.7806628 121.587389,71.1440822 121.587389,70.3495096 L121.587389,67.6486548 C121.598894,66.459679 122.567566,65.494429 123.760575,65.494429 C124.958186,65.494429 125.93031,66.470058 125.93031,67.6717193 L125.93031,86.0437596 C125.93031,87.8335661 124.477301,89.2923967 122.691814,89.2923967 L101.595,89.2923967 C100.827655,89.2923967 100.106327,89.4815257 99.4643805,89.8113483 L85.7603097,76.0741225 Z M127.092257,90.2657193 C128.139159,89.1655419 128.789159,87.6813402 128.789159,86.0437596 L128.789159,67.5540902 C128.789159,67.5137273 128.779956,67.4733644 128.777655,67.4341548 C128.651106,64.7632838 126.45031,62.6286628 123.760575,62.6286628 C122.658451,62.6286628 121.644912,62.9873161 120.817743,63.5881467 C119.92615,62.1673725 118.351195,61.2171144 116.556504,61.2171144 C115.480841,61.2171144 114.489159,61.5573161 113.671195,62.1362354 C112.784204,60.6151306 111.164381,59.570308 109.352434,59.570308 C108.580487,59.570308 107.844204,59.7675096 107.181549,60.1019451 L107.181549,48.477429 C107.181549,45.6981548 104.92323,43.4343725 102.149513,43.4343725 C99.3769469,43.4343725 97.1197788,45.6981548 97.1197788,48.477429 L97.1197788,74.1090257 C97.1197788,74.4572999 96.9759735,74.7721306 96.745885,75.0016225 C96.5111947,75.2311144 96.1913717,75.371808 95.835885,75.371808 C95.4861504,75.371808 95.1663274,75.2334209 94.925885,74.9820177 C94.9189823,74.9750983 94.9097788,74.9704854 94.9063274,74.9647193 C94.9028761,74.9577999 94.8994248,74.9520338 94.8936726,74.9508806 L90.8533186,70.9687919 C89.9030531,70.0162273 88.6421681,69.4903564 87.2984513,69.4903564 C85.955885,69.4903564 84.6915487,70.0162273 83.7389823,70.9687919 C81.7786283,72.9361951 81.7786283,76.132937 83.7389823,78.0980338 L97.4384513,91.8294935 C97.1036726,92.4776064 96.9103982,93.2075983 96.9103982,93.9860257 C96.9103982,96.5761709 99.0099558,98.6831144 101.59385,98.6831144 L124.244912,98.6831144 C126.827655,98.6831144 128.929513,96.5761709 128.931814,93.9860257 C128.931814,92.470687 128.207035,91.1248725 127.092257,90.2657193 Z" id="Fill-49"></path>
                    <path d="M125.929159,67.6717193 L125.929159,86.0437596 C125.929159,87.8335661 124.477301,89.2923967 122.691814,89.2923967 L101.59385,89.2923967 C100.827655,89.2923967 100.105177,89.4815257 99.4643805,89.8113483 L85.7603097,76.0741225 C84.9147345,75.2253483 84.9147345,73.8414773 85.7603097,72.9938564 C86.1721681,72.583308 86.7186283,72.3549693 87.2996018,72.3549693 C87.8782743,72.3549693 88.4247345,72.583308 88.8400442,73.001929 L92.8907522,76.9920902 C92.8965044,76.9990096 92.9045575,77.0013161 92.9103097,77.0116951 C93.6788053,77.7901225 94.7429646,78.2375741 95.835885,78.2375741 C98.1206637,78.2375741 99.9786283,76.3854935 99.9786283,74.1090257 C99.9786283,74.1055661 99.9786283,74.1055661 99.9786283,74.1055661 L99.9786283,48.477429 C99.9786283,47.2757677 100.953053,46.2989854 102.150664,46.2989854 C103.347124,46.2989854 104.322699,47.2757677 104.322699,48.477429 L104.322699,67.757058 C104.322699,68.5470177 104.963496,69.1893644 105.751549,69.1893644 C106.543053,69.1893644 107.181549,68.5470177 107.181549,67.757058 L107.181549,64.728687 C107.181549,63.4855096 108.175531,62.4337677 109.352434,62.4337677 C110.532788,62.4337677 111.52677,63.4855096 111.52677,64.728687 L111.52677,66.2590177 C111.52677,66.2624773 111.52677,66.2636306 111.52677,66.2636306 L111.52677,68.8226386 C111.52677,69.6125983 112.167566,70.2549451 112.95677,70.2549451 C113.744823,70.2549451 114.384469,69.6125983 114.384469,68.8226386 L114.384469,66.2463322 C114.391372,65.0527435 115.362345,64.0817273 116.557655,64.0817273 C117.755265,64.0817273 118.730841,65.0585096 118.730841,66.2590177 L118.730841,70.3495096 C118.730841,71.1440822 119.370487,71.7806628 120.157389,71.7806628 C120.947743,71.7806628 121.587389,71.1440822 121.587389,70.3495096 L121.587389,67.6486548 C121.598894,66.459679 122.567566,65.494429 123.760575,65.494429 C124.958186,65.494429 125.929159,66.470058 125.929159,67.6717193" id="Fill-50" opacity="0.403306159"></path>
                    <path d="M101.483407,99.2712596 C100.694204,99.2712596 100.054558,99.9124531 100.054558,100.704719 L100.054558,140.871574 C100.054558,141.662687 100.694204,142.303881 101.483407,142.303881 C102.273761,142.303881 102.911106,141.662687 102.911106,140.871574 L102.911106,100.704719 C102.911106,99.9124531 102.273761,99.2712596 101.483407,99.2712596" id="Fill-51"></path>
                    <path d="M124.356504,99.2712596 C123.567301,99.2712596 122.927655,99.9124531 122.927655,100.704719 L122.927655,140.871574 C122.927655,141.662687 123.567301,142.303881 124.356504,142.303881 C125.146858,142.303881 125.784204,141.662687 125.784204,140.871574 L125.784204,100.704719 C125.784204,99.9124531 125.146858,99.2712596 124.356504,99.2712596" id="Fill-52"></path>
                    <polygon id="Fill-53" opacity="0.403306159" points="20.6418142 140.766631 24.3105752 140.766631 24.3105752 100.704719 20.6418142 100.704719"></polygon>
                    <polygon id="Fill-54" opacity="0.403306159" points="102.911106 140.819679 107.188451 140.819679 107.188451 100.755461 102.911106 100.755461"></polygon>
                    <polygon id="Fill-55" opacity="0.403306159" points="54.9606637 140.766631 59.605 140.766631 59.605 68.0545902 54.9606637 68.0545902"></polygon>
                </g>
                <circle id="Oval-Copy-26" fill="#1F4A5F" cx="112" cy="208" r="3"></circle>
                <circle id="Oval-Copy-33" fill="#64C3D9" opacity="0.300000012" cx="122" cy="208" r="3"></circle>
            </g>
        </g>
    </g>
</svg>