<?xml version="1.0" encoding="UTF-8"?>
<svg width="240px" height="210px" viewBox="0 0 240 210" version="1.1" xmlns="http://www.w3.org/2000/svg" xmlns:xlink="http://www.w3.org/1999/xlink">
    <!-- Generator: Sketch 50.2 (55047) - http://www.bohemiancoding.com/sketch -->
    <title>ilus2</title>
    <desc>Created with Sketch.</desc>
    <defs></defs>
    <g id="Page-1" stroke="none" stroke-width="1" fill="none" fill-rule="evenodd">
        <g id="REGISTER" transform="translate(-1038.000000, -264.000000)">
            <g id="ilus2" transform="translate(1038.000000, 264.000000)">
                <g id="Group-11" transform="translate(50.000000, 43.000000)" fill="#1F4A5F">
                    <path d="M129.651147,80.5179259 C129.651147,80.9066667 129.602503,81.2906667 129.504028,81.6485926 C129.466062,81.7872593 129.430469,81.8962963 129.391316,81.9994074 C129.347418,82.1155556 129.295214,82.2435556 129.227587,82.3976296 C129.162333,82.5232593 129.094706,82.6477037 129.027079,82.7602963 C129.021147,82.7697778 129.011655,82.7828148 129.006909,82.7899259 C128.926231,82.9179259 128.858604,83.0186667 128.79335,83.104 C127.971147,84.205037 126.70996,84.8331852 125.333689,84.8331852 L83.255384,84.8331852 C80.8694518,84.8331852 78.9308077,82.8965926 78.9308077,80.5179259 L78.9308077,15.922963 C78.9308077,13.5431111 80.8694518,11.6065185 83.2518246,11.6065185 L125.333689,11.6065185 C126.485723,11.6065185 127.567757,12.0568889 128.384028,12.8687407 C128.531147,13.0192593 128.67352,13.1780741 128.795723,13.344 C128.802842,13.3522963 128.807587,13.3582222 128.81352,13.3665185 C128.885892,13.4637037 128.959452,13.5727407 129.029452,13.6912593 C129.035384,13.696 129.037757,13.7031111 129.044875,13.7114074 C129.11013,13.824 129.171825,13.9413333 129.22996,14.0586667 C129.253689,14.1084444 129.277418,14.1582222 129.298774,14.208 L129.32013,14.2613333 C129.343859,14.3146667 129.361655,14.3656296 129.383011,14.418963 C129.385384,14.4331852 129.391316,14.445037 129.397248,14.4592593 C129.430469,14.5505185 129.466062,14.6595556 129.504028,14.797037 C129.602503,15.1537778 129.651147,15.5342222 129.651147,15.9253333 L129.651147,80.5179259 Z M139.849791,24.1552593 C139.849791,24.0722963 139.845045,23.9893333 139.843859,23.9063704 C139.840299,23.8542222 139.834367,23.8044444 139.831994,23.7546667 C139.824875,23.6835556 139.82013,23.6124444 139.813011,23.5460741 C139.807079,23.4951111 139.798774,23.4441481 139.792842,23.3955556 C139.784537,23.3232593 139.775045,23.2533333 139.764367,23.1822222 C139.757248,23.1395556 139.747757,23.090963 139.739452,23.0471111 C139.726401,22.9736296 139.71335,22.8977778 139.69674,22.8231111 C139.687248,22.7851852 139.678943,22.7472593 139.669452,22.7057778 C139.651655,22.6263704 139.631486,22.546963 139.607757,22.4675556 C139.599452,22.4355556 139.58996,22.4059259 139.580469,22.3739259 C139.554367,22.285037 139.528265,22.1973333 139.498604,22.1084444 C139.492672,22.0871111 139.483181,22.066963 139.477248,22.0468148 C139.442842,21.9472593 139.407248,21.8488889 139.369282,21.7493333 C139.365723,21.7398519 139.36335,21.7351111 139.356231,21.7256296 C138.99674,20.8237037 138.443859,19.9881481 137.71657,19.2699259 C137.626401,19.1762963 137.52674,19.0838519 137.434198,19.0020741 C136.321316,18.0065185 134.945045,17.3404444 133.45013,17.056 C133.438265,17.056 133.426401,17.0536296 133.415723,17.0512593 C133.312503,17.0299259 133.206909,17.0145185 133.102503,16.9979259 C133.072842,16.9931852 133.039621,16.9884444 133.011147,16.9848889 C132.925723,16.973037 132.837926,16.9623704 132.751316,16.9528889 C132.701486,16.946963 132.654028,16.941037 132.605384,16.9386667 C132.600638,16.9386667 132.600638,16.9386667 132.597079,16.9351111 L132.597079,15.9253333 C132.597079,15.2711111 132.512842,14.6334815 132.344367,14.0207407 C132.282672,13.7967407 132.22335,13.6082963 132.158096,13.4352593 C132.117757,13.3167407 132.070299,13.1958519 132.021655,13.0808889 L132.000299,13.0322963 C131.961147,12.9481481 131.925553,12.8628148 131.885214,12.781037 C131.879282,12.7703704 131.875723,12.7573333 131.870977,12.7454815 C131.760638,12.5368889 131.659791,12.3508148 131.561316,12.1777778 C131.545892,12.1564444 131.530469,12.1339259 131.516231,12.109037 C131.401147,11.9205926 131.28013,11.744 131.15674,11.5828148 C131.146062,11.5638519 131.135384,11.5508148 131.121147,11.5354074 C130.923011,11.277037 130.705892,11.026963 130.467418,10.7875556 C129.097079,9.41866667 127.272333,8.66133333 125.333689,8.66133333 L83.2518246,8.66133333 C79.2464009,8.66133333 75.9836891,11.9205926 75.9836891,15.922963 L75.9836891,90.0254815 C75.9836891,90.029037 75.9836891,90.029037 75.9836891,90.0325926 C75.9872484,94.0882963 79.5975874,97.3914074 84.0360619,97.3914074 C84.0384348,97.3914074 84.0455535,97.389037 84.0467399,97.389037 L86.6118246,97.389037 C87.4245365,97.389037 88.0841975,96.7300741 88.0841975,95.9158519 C88.0841975,95.1051852 87.4245365,94.445037 86.6118246,94.445037 L84.0360619,94.445037 C84.0313162,94.445037 84.0289433,94.4462222 84.0265704,94.4462222 C81.2182653,94.4426667 78.9308077,92.4598519 78.9308077,90.0254815 C78.9308077,90.0254815 78.9308077,90.0254815 78.9308077,90.0231111 L78.9308077,86.3537778 C80.1433501,87.2497778 81.6358924,87.7795556 83.255384,87.7795556 L125.333689,87.7795556 C127.614028,87.7795556 129.79352,86.6891852 131.154367,84.864 C131.274198,84.7004444 131.396401,84.5274074 131.531655,84.3105185 C131.553011,84.2820741 131.570808,84.2488889 131.588604,84.2168889 C131.687079,84.0462222 131.784367,83.8672593 131.875723,83.6811852 C131.881655,83.6693333 131.888774,83.6598519 131.894706,83.6491852 C131.997926,83.4228148 132.08335,83.218963 132.15335,83.0305185 C132.220977,82.8527407 132.282672,82.6583704 132.347926,82.4213333 C132.512842,81.8026667 132.598265,81.165037 132.598265,80.5179259 L132.598265,19.9028148 C133.09657,19.9739259 133.571147,20.1042963 134.013689,20.2891852 C134.086062,20.3188148 134.16674,20.3484444 134.240299,20.3828148 C134.278265,20.4005926 134.313859,20.4242963 134.349452,20.4420741 C134.462164,20.498963 134.57013,20.5534815 134.676909,20.6162963 C134.697079,20.626963 134.712503,20.6423704 134.731486,20.653037 C134.853689,20.7277037 134.971147,20.8047407 135.085045,20.8865185 C135.104028,20.9007407 135.118265,20.9125926 135.136062,20.928 C135.245214,21.010963 135.350808,21.0951111 135.455214,21.1875556 C135.527587,21.248 135.595214,21.3167407 135.664028,21.3842963 C135.731655,21.4518519 135.796909,21.5253333 135.858604,21.5952593 C135.894198,21.6343704 135.926231,21.6722963 135.958265,21.7102222 C136.017587,21.7825185 136.069791,21.8548148 136.124367,21.9282963 C136.156401,21.9697778 136.186062,22.0112593 136.214537,22.0551111 C136.261994,22.1297778 136.309452,22.2056296 136.356909,22.2826667 C136.383011,22.3265185 136.40674,22.3739259 136.432842,22.4201481 C136.474367,22.4971852 136.512333,22.573037 136.549113,22.6500741 C136.571655,22.7034074 136.591825,22.752 136.613181,22.8053333 C136.642842,22.8835556 136.674875,22.9594074 136.698604,23.0364444 C136.71996,23.0945185 136.737757,23.1525926 136.751994,23.213037 C136.77335,23.2865185 136.794706,23.3588148 136.811316,23.4334815 C136.829113,23.506963 136.840977,23.584 136.852842,23.6562963 C136.85996,23.7179259 136.873011,23.7807407 136.881316,23.8423704 C136.894367,23.9727407 136.901486,24.0983704 136.901486,24.2299259 C136.901486,24.242963 136.905045,24.2524444 136.905045,24.2631111 L136.905045,90.0254815 C136.905045,92.4657778 134.615214,94.445037 131.800977,94.445037 L129.938265,94.445037 C129.124367,94.445037 128.46352,95.1051852 128.46352,95.9158519 C128.46352,96.7300741 129.124367,97.389037 129.938265,97.389037 L131.791486,97.389037 C131.795045,97.389037 131.798604,97.3914074 131.800977,97.3914074 C136.241825,97.3914074 139.85335,94.0847407 139.85335,90.0254815 C139.85335,90.0254815 139.85335,90.0254815 139.85335,90.0231111 L139.85335,24.269037 C139.85335,24.2666667 139.85335,24.2666667 139.85335,24.2666667 C139.850977,24.2287407 139.849791,24.1908148 139.849791,24.1552593 Z" id="Fill-119"></path>
                    <path d="M122.882503,54.8124444 L85.7030111,54.8124444 C84.8891128,54.8124444 84.2282653,55.4714074 84.2282653,56.2844444 C84.2282653,57.0986667 84.8891128,57.7576296 85.7030111,57.7576296 L122.882503,57.7576296 C123.696401,57.7576296 124.357248,57.0986667 124.357248,56.2844444 C124.357248,55.4714074 123.696401,54.8124444 122.882503,54.8124444" id="Fill-120"></path>
                    <path d="M122.882503,60.3034074 L85.7030111,60.3034074 C84.8891128,60.3034074 84.2282653,60.9623704 84.2282653,61.7754074 C84.2282653,62.5884444 84.8891128,63.2474074 85.7030111,63.2474074 L122.882503,63.2474074 C123.696401,63.2474074 124.357248,62.5884444 124.357248,61.7754074 C124.357248,60.9623704 123.696401,60.3034074 122.882503,60.3034074" id="Fill-121"></path>
                    <path d="M122.882503,65.7943704 L85.7030111,65.7943704 C84.8891128,65.7943704 84.2282653,66.4521481 84.2282653,67.2651852 C84.2282653,68.0794074 84.8891128,68.7383704 85.7030111,68.7383704 L122.882503,68.7383704 C123.696401,68.7383704 124.357248,68.0794074 124.357248,67.2651852 C124.357248,66.4521481 123.696401,65.7943704 122.882503,65.7943704" id="Fill-122"></path>
                    <path d="M122.882503,71.282963 L85.7030111,71.282963 C84.8891128,71.282963 84.2282653,71.9442963 84.2282653,72.7573333 C84.2282653,73.5691852 84.8891128,74.2305185 85.7030111,74.2305185 L122.882503,74.2305185 C123.696401,74.2305185 124.357248,73.5691852 124.357248,72.7573333 C124.357248,71.9442963 123.696401,71.282963 122.882503,71.282963" id="Fill-123"></path>
                    <path d="M122.882503,76.7739259 L85.7030111,76.7739259 C84.8891128,76.7739259 84.2282653,77.4317037 84.2282653,78.2447407 C84.2282653,79.058963 84.8891128,79.7167407 85.7030111,79.7167407 L122.882503,79.7167407 C123.696401,79.7167407 124.357248,79.058963 124.357248,78.2447407 C124.357248,77.4317037 123.696401,76.7739259 122.882503,76.7739259" id="Fill-124"></path>
                    <path d="M121.411316,30.5434074 L117.950469,24.5582222 C117.685892,24.1019259 117.198265,23.8222222 116.675045,23.8222222 C116.147079,23.8222222 115.661825,24.1019259 115.398435,24.5582222 L108.887248,35.8198519 L105.565214,30.0693333 C105.304198,29.6154074 104.817757,29.3333333 104.289791,29.3333333 C103.765384,29.3333333 103.278943,29.6154074 103.013181,30.0693333 L91.8902992,49.3214815 L87.1777569,49.3214815 L87.1777569,19.666963 L121.411316,19.666963 L121.411316,30.5434074 Z M121.411316,49.3214815 L104.48674,49.3214815 L116.675045,28.2382222 L121.411316,36.4325926 L121.411316,49.3214815 Z M95.2941975,49.3214815 L104.289791,33.7505185 L107.187079,38.7638519 L101.086401,49.3214815 L95.2941975,49.3214815 Z M122.884875,16.722963 L85.7041975,16.722963 C84.8867399,16.722963 84.2294518,17.3831111 84.2294518,18.194963 L84.2294518,50.7946667 C84.2294518,51.6065185 84.8867399,52.2666667 85.7041975,52.2666667 L122.884875,52.2666667 C123.697587,52.2666667 124.358435,51.6065185 124.358435,50.7946667 L124.358435,18.194963 C124.359621,17.3831111 123.697587,16.722963 122.884875,16.722963 Z" id="Fill-125"></path>
                    <path d="M94.5787738,32.0213333 C91.7811467,32.0213333 89.5019941,29.7493333 89.5019941,26.9511111 C89.5019941,24.1576296 91.7811467,21.8844444 94.5787738,21.8844444 C97.3752145,21.8844444 99.6496213,24.1576296 99.6496213,26.9511111 C99.6496213,29.7493333 97.3752145,32.0213333 94.5787738,32.0213333 Z M87.1777569,19.666963 L87.1777569,49.3214815 L91.8902992,49.3214815 L103.011994,30.0693333 C103.278943,29.6154074 103.765384,29.3333333 104.288604,29.3333333 C104.81657,29.3333333 105.304198,29.6154074 105.565214,30.0693333 L108.887248,35.8198519 L115.398435,24.5582222 C115.661825,24.1019259 116.147079,23.8222222 116.673859,23.8222222 C117.198265,23.8222222 117.685892,24.1019259 117.950469,24.5582222 L121.411316,30.5434074 L121.411316,19.666963 L87.1777569,19.666963 Z" id="Fill-126" opacity="0.4"></path>
                    <path d="M94.5787738,29.0773333 C93.405384,29.0773333 92.4502992,28.1232593 92.4502992,26.9511111 C92.4502992,25.7801481 93.4041975,24.8284444 94.5787738,24.8284444 C95.7509772,24.8284444 96.7036891,25.7801481 96.7036891,26.9511111 C96.7036891,28.1232593 95.7509772,29.0773333 94.5787738,29.0773333 Z M94.5787738,21.8844444 C91.7811467,21.8844444 89.5019941,24.1576296 89.5019941,26.9511111 C89.5019941,29.7493333 91.7811467,32.0213333 94.5787738,32.0213333 C97.3752145,32.0213333 99.6496213,29.7493333 99.6496213,26.9511111 C99.6496213,24.1576296 97.3752145,21.8844444 94.5787738,21.8844444 Z" id="Fill-127"></path>
                    <path d="M68.7891128,14.5718519 L8.41826533,14.5718519 L8.41826533,9.54785185 C8.41826533,5.90577778 11.2799602,2.94518519 14.7965704,2.94518519 L62.4048755,2.94518519 C65.925045,2.94518519 68.7891128,5.90577778 68.7891128,9.54785185 L68.7891128,14.5718519 Z M8.41826533,89.1282963 L8.41826533,17.5158519 L68.7867399,17.5158519 L68.7891128,89.1282963 L8.41826533,89.1282963 Z M68.7891128,96.5025185 C68.7891128,100.145778 65.925045,103.112296 62.4048755,103.112296 L14.8025026,103.112296 C11.2835196,103.112296 8.41826533,100.145778 8.41826533,96.5025185 L8.41826533,92.0722963 L68.7891128,92.0722963 L68.7891128,96.5025185 Z M71.7362314,9.54785185 C71.7362314,4.28088889 67.5504687,0 62.4048755,0 L14.7965704,0 C9.65335007,0 5.47114668,4.28088889 5.47114668,9.54785185 L5.47114668,90.5991111 C5.47114668,90.6405926 5.48063821,90.674963 5.48301109,90.7176296 C5.48063821,90.7555556 5.47114668,90.7922963 5.47114668,90.829037 L5.47114668,96.5025185 C5.47114668,101.768296 9.65572295,106.053926 14.8025026,106.053926 L62.4048755,106.053926 C67.5480958,106.053926 71.7362314,101.768296 71.7362314,96.5025185 L71.7362314,90.829037 C71.7362314,90.7922963 71.7279263,90.7531852 71.7255535,90.7128889 C71.7279263,90.674963 71.7362314,90.6382222 71.7362314,90.5991111 L71.7338585,16.0474074 C71.7338585,16.0474074 71.7362314,16.0474074 71.7362314,16.0426667 L71.7362314,9.54785185 Z" id="Fill-128"></path>
                    <path d="M45.7080958,98.8894815 L31.4992823,98.8894815 C30.685384,98.8894815 30.025723,98.2305185 30.025723,97.4174815 C30.025723,96.6020741 30.685384,95.9478519 31.4992823,95.9478519 L45.7080958,95.9478519 C46.5219941,95.9478519 47.1816552,96.6020741 47.1816552,97.4174815 C47.1816552,98.2305185 46.5219941,98.8894815 45.7080958,98.8894815 Z M8.41826533,92.0722963 L8.41826533,96.5025185 C8.41826533,100.145778 11.2835196,103.112296 14.8025026,103.112296 L62.4048755,103.112296 C65.925045,103.112296 68.7891128,100.145778 68.7891128,96.5025185 L68.7891128,92.0722963 L8.41826533,92.0722963 Z" id="Fill-129" opacity="0.4"></path>
                    <path d="M45.7080958,10.6465185 L31.4992823,10.6465185 C30.685384,10.6465185 30.025723,9.98637037 30.025723,9.17451852 C30.025723,8.36148148 30.685384,7.70251852 31.4992823,7.70251852 L45.7080958,7.70251852 C46.5219941,7.70251852 47.1816552,8.36148148 47.1816552,9.17451852 C47.1816552,9.98637037 46.5219941,10.6465185 45.7080958,10.6465185 Z M62.4048755,2.94518519 L14.7965704,2.94518519 C11.2799602,2.94518519 8.41826533,5.90577778 8.41826533,9.54785185 L8.41826533,14.5718519 L68.7891128,14.5718519 L68.7891128,9.54785185 C68.7891128,5.90577778 65.925045,2.94518519 62.4048755,2.94518519 Z" id="Fill-130" opacity="0.4"></path>
                    <path d="M47.1816552,97.4174815 C47.1816552,98.2305185 46.5219941,98.8894815 45.7080958,98.8894815 L31.4992823,98.8894815 C30.685384,98.8894815 30.025723,98.2305185 30.025723,97.4174815 C30.025723,96.6020741 30.685384,95.9478519 31.4992823,95.9478519 L45.7080958,95.9478519 C46.5219941,95.9478519 47.1816552,96.6020741 47.1816552,97.4174815" id="Fill-131"></path>
                    <path d="M47.1816552,9.17451852 C47.1816552,9.98637037 46.5219941,10.6465185 45.7080958,10.6465185 L31.4992823,10.6465185 C30.685384,10.6465185 30.025723,9.98637037 30.025723,9.17451852 C30.025723,8.36148148 30.685384,7.70251852 31.4992823,7.70251852 L45.7080958,7.70251852 C46.5219941,7.70251852 47.1816552,8.36148148 47.1816552,9.17451852" id="Fill-132"></path>
                    <path d="M62.0679263,59.9134815 L15.1382653,59.9134815 C14.3255535,59.9134815 13.6658924,60.5724444 13.6658924,61.3866667 C13.6658924,62.1997037 14.3255535,62.8586667 15.1382653,62.8586667 L62.0679263,62.8586667 C62.8818246,62.8586667 63.5414857,62.1997037 63.5414857,61.3866667 C63.5414857,60.5724444 62.8818246,59.9134815 62.0679263,59.9134815" id="Fill-133"></path>
                    <path d="M62.0679263,65.4056296 L15.1382653,65.4056296 C14.3255535,65.4056296 13.6658924,66.0634074 13.6658924,66.8752593 C13.6658924,67.6894815 14.3255535,68.3496296 15.1382653,68.3496296 L62.0679263,68.3496296 C62.8818246,68.3496296 63.5414857,67.6894815 63.5414857,66.8752593 C63.5414857,66.0634074 62.8818246,65.4056296 62.0679263,65.4056296" id="Fill-134"></path>
                    <path d="M62.0679263,70.8942222 L15.1382653,70.8942222 C14.3255535,70.8942222 13.6658924,71.552 13.6658924,72.3674074 C13.6658924,73.1792593 14.3255535,73.8382222 15.1382653,73.8382222 L62.0679263,73.8382222 C62.8818246,73.8382222 63.5414857,73.1792593 63.5414857,72.3674074 C63.5414857,71.552 62.8818246,70.8942222 62.0679263,70.8942222" id="Fill-135"></path>
                    <path d="M62.0679263,76.3851852 L15.1382653,76.3851852 C14.3255535,76.3851852 13.6658924,77.0453333 13.6658924,77.856 C13.6658924,78.6714074 14.3255535,79.3303704 15.1382653,79.3303704 L62.0679263,79.3303704 C62.8818246,79.3303704 63.5414857,78.6714074 63.5414857,77.856 C63.5414857,77.0453333 62.8818246,76.3851852 62.0679263,76.3851852" id="Fill-136"></path>
                    <path d="M62.0679263,81.874963 L15.1382653,81.874963 C14.3255535,81.874963 13.6658924,82.5315556 13.6658924,83.3457778 C13.6658924,84.16 14.3255535,84.8177778 15.1382653,84.8177778 L62.0679263,84.8177778 C62.8818246,84.8177778 63.5414857,84.16 63.5414857,83.3457778 C63.5414857,82.5315556 62.8818246,81.874963 62.0679263,81.874963" id="Fill-137"></path>
                    <path d="M16.6130111,53.7848889 L60.5931806,53.7848889 L60.5931806,24.1303704 L16.6130111,24.1303704 L16.6130111,53.7848889 Z M62.0667399,21.1875556 L15.1382653,21.1875556 C14.3255535,21.1875556 13.664706,21.8465185 13.664706,22.6583704 L13.664706,55.2568889 C13.664706,56.0699259 14.3255535,56.7288889 15.1382653,56.7288889 L62.0667399,56.7288889 C62.8794518,56.7288889 63.5402992,56.0699259 63.5402992,55.2568889 L63.5402992,22.6583704 C63.5402992,21.8465185 62.8794518,21.1875556 62.0667399,21.1875556 Z" id="Fill-138"></path>
                    <path d="M44.8764009,41.3902222 L33.8045365,47.776 C33.5779263,47.9063704 33.324028,47.9739259 33.0665704,47.9739259 C32.8138585,47.9739259 32.5599602,47.9063704 32.3309772,47.776 C31.875384,47.5117037 31.5941975,47.0245926 31.5941975,46.5007407 L31.5941975,33.7315556 C31.5941975,33.2053333 31.875384,32.7194074 32.3309772,32.4574815 C32.7877569,32.1931852 33.3501297,32.1931852 33.8045365,32.4574815 L44.8764009,38.8408889 C45.3319941,39.1016296 45.6155535,39.5911111 45.6155535,40.1161481 C45.6155535,40.6435556 45.3319941,41.1282963 44.8764009,41.3902222 Z M16.6130111,53.7848889 L60.5931806,53.7848889 L60.5931806,24.1303704 L16.6130111,24.1303704 L16.6130111,53.7848889 Z" id="Fill-139" opacity="0.4"></path>
                    <path d="M34.5413162,43.9514074 L34.5413162,36.2820741 L41.1925026,40.1161481 L34.5413162,43.9514074 Z M44.8764009,38.8408889 L33.8045365,32.4574815 C33.3501297,32.1931852 32.7877569,32.1931852 32.3309772,32.4574815 C31.875384,32.7194074 31.5941975,33.2053333 31.5941975,33.7315556 L31.5941975,46.5007407 C31.5941975,47.0245926 31.875384,47.5117037 32.3309772,47.776 C32.5599602,47.9063704 32.8138585,47.9739259 33.0665704,47.9739259 C33.324028,47.9739259 33.5779263,47.9063704 33.8045365,47.776 L44.8764009,41.3902222 C45.3319941,41.1282963 45.6155535,40.6435556 45.6155535,40.1161481 C45.6155535,39.5911111 45.3319941,39.1016296 44.8764009,38.8408889 Z" id="Fill-140"></path>
                    <path d="M119.139282,122.023111 C116.182672,122.023111 113.777757,119.621926 113.777757,116.668444 C113.777757,113.714963 116.182672,111.313778 119.139282,111.313778 C122.094706,111.313778 124.499621,113.714963 124.499621,116.668444 C124.499621,119.621926 122.094706,122.023111 119.139282,122.023111 Z M97.8118246,122.023111 C94.8552145,122.023111 92.4502992,119.621926 92.4502992,116.668444 C92.4502992,113.714963 94.8552145,111.313778 97.8118246,111.313778 C100.768435,111.313778 103.172164,113.714963 103.172164,116.668444 C103.172164,119.621926 100.768435,122.023111 97.8118246,122.023111 Z M119.139282,89.9140741 C114.558435,89.9140741 110.829452,93.6367407 110.829452,98.2127407 C110.829452,99.026963 111.490299,99.6847407 112.304198,99.6847407 C113.116909,99.6847407 113.777757,99.026963 113.777757,98.2127407 C113.777757,95.2628148 116.182672,92.8568889 119.139282,92.8568889 C122.094706,92.8568889 124.499621,95.2628148 124.499621,98.2127407 L124.499621,110.334815 C123.052164,109.110519 121.181147,108.370963 119.139282,108.370963 C115.060299,108.370963 111.661147,111.320889 110.965892,115.195259 L105.987587,115.195259 C105.288774,111.320889 101.890808,108.370963 97.8118246,108.370963 C95.7687738,108.370963 93.9001297,109.110519 92.4502992,110.334815 L92.4502992,98.2127407 C92.4502992,95.2628148 94.8552145,92.8568889 97.8118246,92.8568889 C100.768435,92.8568889 103.172164,95.2628148 103.172164,98.2127407 C103.172164,99.026963 103.833011,99.6847407 104.646909,99.6847407 C105.459621,99.6847407 106.120469,99.026963 106.120469,98.2127407 C106.120469,93.6367407 102.391486,89.9140741 97.8118246,89.9140741 C93.2321636,89.9140741 89.5019941,93.6367407 89.5019941,98.2127407 L89.5019941,116.668444 C89.5019941,121.244444 93.2321636,124.967111 97.8118246,124.967111 C101.890808,124.967111 105.288774,122.016 105.987587,118.138074 L110.965892,118.138074 C111.661147,122.016 115.060299,124.967111 119.139282,124.967111 C123.718943,124.967111 127.444367,121.244444 127.447926,116.672 C127.447926,116.670815 127.447926,116.670815 127.447926,116.668444 L127.447926,98.2127407 C127.447926,98.2091852 127.447926,98.2091852 127.447926,98.2091852 C127.443181,93.6367407 123.718943,89.9140741 119.139282,89.9140741 Z" id="Fill-141"></path>
                    <path d="M124.499621,116.668444 C124.499621,119.621926 122.094706,122.023111 119.139282,122.023111 C116.182672,122.023111 113.778943,119.621926 113.778943,116.668444 C113.778943,113.714963 116.182672,111.313778 119.139282,111.313778 C122.094706,111.313778 124.499621,113.714963 124.499621,116.668444" id="Fill-142" opacity="0.4"></path>
                    <path d="M103.172164,116.668444 C103.172164,119.621926 100.768435,122.023111 97.8118246,122.023111 C94.8552145,122.023111 92.4502992,119.621926 92.4502992,116.668444 C92.4502992,113.714963 94.8552145,111.313778 97.8118246,111.313778 C100.768435,111.313778 103.172164,113.714963 103.172164,116.668444" id="Fill-143" opacity="0.4"></path>
                    <path d="M79.1692823,122.023111 L82.5613162,122.023111 L82.5613162,113.43763 L79.1692823,113.43763 L79.1692823,122.023111 Z M76.2221636,122.891852 C76.2221636,122.983111 76.2126721,123.070815 76.1948755,123.157333 C76.1925026,123.171556 76.1830111,123.190519 76.1818246,123.208296 C76.0406382,123.796148 75.5114857,124.234667 74.8779263,124.234667 C74.1375874,124.234667 73.5336891,123.633778 73.5336891,122.891852 L73.5336891,112.568889 C73.5336891,111.830519 74.1375874,111.226074 74.8779263,111.226074 C75.5091128,111.226074 76.0406382,111.665778 76.1818246,112.25363 C76.1841975,112.272593 76.1925026,112.29037 76.1948755,112.310519 C76.2126721,112.393481 76.2221636,112.481185 76.2221636,112.568889 L76.2221636,122.891852 Z M14.1772484,122.023111 L70.5865704,122.023111 L70.5865704,113.43763 L14.1772484,113.43763 L14.1772484,122.023111 Z M11.2301297,121.088 L4.6928416,117.731556 L11.2301297,114.378667 L11.2301297,121.088 Z M84.0360619,110.49363 L78.6306382,110.49363 C77.8962314,109.178074 76.4891128,108.282074 74.8779263,108.282074 C73.2655535,108.282074 71.8619941,109.178074 71.1264009,110.49363 L12.7036891,110.49363 C12.6870789,110.49363 12.6704687,110.49837 12.6538585,110.49837 C12.6004687,110.504296 12.5482653,110.509037 12.4948755,110.517333 C12.4474179,110.524444 12.4035196,110.528 12.3596213,110.541037 C12.315723,110.550519 12.2706382,110.564741 12.2267399,110.580148 C12.175723,110.600296 12.1258924,110.619259 12.0760619,110.637037 C12.0606382,110.647704 12.0475874,110.650074 12.0321636,110.65837 L0.794197531,116.423111 C0.788265327,116.426667 0.785892446,116.430222 0.778773802,116.432593 C0.726570412,116.462222 0.675553463,116.498963 0.626909395,116.534519 C0.596061938,116.553481 0.564028039,116.568889 0.535553463,116.596148 C0.496400921,116.623407 0.466739904,116.660148 0.431146683,116.694519 C0.395553463,116.728889 0.359960243,116.762074 0.329112785,116.798815 C0.305383972,116.827259 0.286400921,116.862815 0.266231429,116.892444 C0.23182465,116.942222 0.195044988,116.98963 0.168943294,117.042963 C0.166570412,117.046519 0.159451768,117.05363 0.157078887,117.061926 C0.141655158,117.09037 0.133350073,117.12 0.119112785,117.15437 C0.0989432936,117.207704 0.0740280393,117.256296 0.0609771919,117.30963 C0.0455534631,117.353481 0.0360619376,117.400889 0.0277568529,117.447111 C0.0182653275,117.495704 0.00996024273,117.543111 0.00402803934,117.588148 C-0.00190416405,117.636741 0.000468717305,117.684148 0.000468717305,117.731556 C0.000468717305,117.781333 -0.00190416405,117.827556 0.00402803934,117.873778 C0.00996024273,117.92237 0.0182653275,117.969778 0.0277568529,118.014815 C0.0360619376,118.063407 0.0455534631,118.107259 0.0609771919,118.154667 C0.0740280393,118.208 0.0989432936,118.257778 0.119112785,118.307556 C0.133350073,118.340741 0.139282277,118.373926 0.157078887,118.404741 C0.159451768,118.410667 0.166570412,118.416593 0.168943294,118.426074 C0.1808077,118.445037 0.192672107,118.460444 0.202163633,118.478222 C0.236570412,118.535111 0.274536514,118.58963 0.312502616,118.644148 C0.331485666,118.660741 0.345722955,118.682074 0.359960243,118.698667 C0.47741787,118.834963 0.61741787,118.945185 0.770468717,119.024593 C0.778773802,119.029333 0.785892446,119.03763 0.794197531,119.04 L12.0321636,124.805926 C12.0523331,124.816593 12.0760619,124.826074 12.0997908,124.836741 C12.1175874,124.845037 12.135384,124.852148 12.1555535,124.860444 C12.2314857,124.892444 12.3121636,124.914963 12.3916552,124.936296 C12.4058924,124.937481 12.4189433,124.937481 12.4331806,124.942222 C12.5245365,124.96 12.6135196,124.969481 12.7036891,124.969481 L12.7072484,124.967111 L71.1264009,124.967111 C71.8596213,126.286222 73.2655535,127.178667 74.8779263,127.178667 C76.4891128,127.178667 77.8962314,126.286222 78.6306382,124.967111 L84.0348755,124.967111 C84.8487738,124.967111 85.5084348,124.311704 85.5084348,123.498667 L85.5084348,111.96563 C85.5084348,111.153778 84.8487738,110.49363 84.0360619,110.49363 Z" id="Fill-144"></path>
                    <polygon id="Fill-145" opacity="0.4" points="79.1692823 122.023111 82.5613162 122.023111 82.5613162 113.43763 79.1692823 113.43763"></polygon>
                    <path d="M67.4033501,119.20237 L17.3130111,119.20237 C16.4991128,119.20237 15.8394518,118.548148 15.8394518,117.731556 C15.8394518,116.917333 16.4991128,116.257185 17.3130111,116.257185 L67.4033501,116.257185 C68.2172484,116.257185 68.8769094,116.917333 68.8769094,117.731556 C68.8769094,118.548148 68.2172484,119.20237 67.4033501,119.20237 Z M14.1772484,122.023111 L70.5865704,122.023111 L70.5865704,113.43763 L14.1772484,113.43763 L14.1772484,122.023111 Z" id="Fill-146" opacity="0.4"></path>
                    <path d="M68.8769094,117.731556 C68.8769094,118.548148 68.2172484,119.20237 67.4033501,119.20237 L17.3130111,119.20237 C16.4991128,119.20237 15.8394518,118.548148 15.8394518,117.731556 C15.8394518,116.917333 16.4991128,116.257185 17.3130111,116.257185 L67.4033501,116.257185 C68.2172484,116.257185 68.8769094,116.917333 68.8769094,117.731556" id="Fill-147"></path>
                </g>
                <circle id="Oval" fill="#64C3D9" opacity="0.35" transform="translate(70.000000, 24.000000) rotate(-90.000000) translate(-70.000000, -24.000000) " cx="70" cy="24" r="3"></circle>
                <circle id="Oval-Copy" fill="#64C3D9" opacity="0.35" transform="translate(52.000000, 24.000000) rotate(-90.000000) translate(-52.000000, -24.000000) " cx="52" cy="24" r="3"></circle>
                <circle id="Oval-Copy-4" fill="#64C3D9" opacity="0.35" transform="translate(156.000000, 13.000000) rotate(-90.000000) translate(-156.000000, -13.000000) " cx="156" cy="13" r="3"></circle>
                <circle id="Oval-Copy-9" fill="#64C3D9" opacity="0.35" transform="translate(156.000000, 3.000000) rotate(-90.000000) translate(-156.000000, -3.000000) " cx="156" cy="3" r="3"></circle>
                <circle id="Oval-Copy-10" fill="#64C3D9" opacity="0.35" transform="translate(147.000000, 3.000000) rotate(-90.000000) translate(-147.000000, -3.000000) " cx="147" cy="3" r="3"></circle>
                <circle id="Oval-Copy-12" fill="#64C3D9" opacity="0.35" transform="translate(228.000000, 102.000000) rotate(-90.000000) translate(-228.000000, -102.000000) " cx="228" cy="102" r="3"></circle>
                <circle id="Oval-Copy-13" fill="#64C3D9" opacity="0.35" transform="translate(228.000000, 93.000000) rotate(-90.000000) translate(-228.000000, -93.000000) " cx="228" cy="93" r="3"></circle>
                <circle id="Oval-Copy-14" fill="#64C3D9" opacity="0.35" transform="translate(237.000000, 93.000000) rotate(-90.000000) translate(-237.000000, -93.000000) " cx="237" cy="93" r="3"></circle>
                <circle id="Oval-Copy-15" fill="#64C3D9" opacity="0.35" transform="translate(219.000000, 102.000000) rotate(-90.000000) translate(-219.000000, -102.000000) " cx="219" cy="102" r="3"></circle>
                <circle id="Oval-Copy-2" fill="#64C3D9" opacity="0.35" transform="translate(213.000000, 37.000000) rotate(-90.000000) translate(-213.000000, -37.000000) " cx="213" cy="37" r="3"></circle>
                <circle id="Oval-Copy-11" fill="#64C3D9" opacity="0.35" transform="translate(213.000000, 27.000000) rotate(-90.000000) translate(-213.000000, -27.000000) " cx="213" cy="27" r="3"></circle>
                <circle id="Oval-Copy-16" fill="#64C3D9" opacity="0.35" transform="translate(13.000000, 117.000000) rotate(-90.000000) translate(-13.000000, -117.000000) " cx="13" cy="117" r="3"></circle>
                <circle id="Oval-Copy-17" fill="#64C3D9" opacity="0.35" transform="translate(13.000000, 107.000000) rotate(-90.000000) translate(-13.000000, -107.000000) " cx="13" cy="107" r="3"></circle>
                <circle id="Oval-Copy-18" fill="#64C3D9" opacity="0.35" transform="translate(3.000000, 107.000000) rotate(-90.000000) translate(-3.000000, -107.000000) " cx="3" cy="107" r="3"></circle>
                <circle id="Oval-Copy-19" fill="#64C3D9" opacity="0.35" transform="translate(13.000000, 87.000000) rotate(-90.000000) translate(-13.000000, -87.000000) " cx="13" cy="87" r="3"></circle>
                <circle id="Oval-Copy-26" fill="#1F4A5F" cx="111" cy="207" r="3"></circle>
                <circle id="Oval-Copy-33" fill="#1F4A5F" cx="121" cy="207" r="3"></circle>
            </g>
        </g>
    </g>
</svg>